<svg xmlns="http://www.w3.org/2000/svg" width="32" height="32" viewBox="0 0 24 24" fill="none">
  <rect width="24" height="24" rx="6" fill="#c87f5f"/>
  <path d="M12 3.5c1.5 2.1 2.3 3.7 2.3 5 0 1.4-.9 2.5-2.3 3.2-1.4-.7-2.3-1.8-2.3-3.2 0-1.3.8-2.9 2.3-5Zm-6 4.1c2.3.3 3.9.8 5 1.5 1.2.8 1.7 2.1 1.6 3.7-1.5.6-2.9.4-4.1-.4-1.1-.8-2-2.4-2.5-4.8Zm12 0c-.5 2.4-1.4 4-2.5 4.8-1.2.8-2.6 1-4.1.4-.1-1.6.4-2.9 1.6-3.7 1.1-.7 2.7-1.2 5-1.5ZM7.3 15c2 .7 3.3 1.5 4.1 2.4.8 1 .9 2.4.3 4.1-1.5.1-2.8-.4-3.8-1.5-.8-1-1.1-2.6-.6-5Zm9.4 0c.5 2.4.2 4-.6 5-1 1.1-2.3 1.6-3.8 1.5-.6-1.7-.5-3.1.3-4.1.8-.9 2.1-1.7 4.1-2.4ZM12 11.6c2 1.1 3.3 2.2 3.9 3.3.6 1.3.4 2.8-.7 4.5h-6.4c-1.1-1.7-1.3-3.2-.7-4.5.6-1.1 1.9-2.2 3.9-3.3Z" stroke="#fff" stroke-width="1.4" stroke-linecap="round" stroke-linejoin="round" fill="none"/>
</svg>
